# xmcd
# 
# Track frame offsets:
#     150
#     14200
#     27382
#     40535
#     55202
#     72732
#     88117
#     98610
#     116422
#     133420
#     148755
#     165840
#     183125
#     196497
#     214012
#     230877
#     245780
#     266550
#     286942
# 
# Disc length: 4022
# 
# Revision: 2
# Processed by: cddbd v1.5.1PL2 Copyright (c) Steve Scherf et al.
# Submitted via: BonkEnc v1.0beta3
# 
DISCID=200fb413
DTITLE=TOM ASTOR - Das Beste... Live!
DYEAR=1996
DGENRE=Country
TTITLE0=ICH BIN WIE ICH BIN
TTITLE1=HUNGRIGE HERZEN
TTITLE2=FREUNDE
TTITLE3=LIEDER ZUM VERLIEBEN
TTITLE4=GEISTERTRUCK
TTITLE5=ORANGE BLOSSOM SPECIAL
TTITLE6=SOME BROKEN HEARTS NEVER MEND
TTITLE7=DOCH ICH HABE DICH GELIEBT
TTITLE8=IRGENWIE WIRDI'S SCHON GEH'N
TTITLE9=TAKE IT EASY - NIMM'S LEICHT
TTITLE10=FREUNDSCHAFT
TTITLE11=RING OF FIRE(DUETT MIT JOHN CARTER CASH)
TTITLE12=100 000 TONNEN
TTITLE13=RESPEKT VOR DEINER SCHWÄCHE
TTITLE14=INTERNATIONAL AIRPORT
TTITLE15=HALLO GUTEN MORGEN DEUTSCHLAND
TTITLE16=FLIEG JUNGER ADLER
TTITLE17=AUF WIEDERSEH'N GOODBYE
TTITLE18=TAKE ME HOME COUNTRY ROADS
EXTD=
EXTT0=
EXTT1=
EXTT2=
EXTT3=
EXTT4=
EXTT5=
EXTT6=
EXTT7=
EXTT8=
EXTT9=
EXTT10=
EXTT11=
EXTT12=
EXTT13=
EXTT14=
EXTT15=
EXTT16=
EXTT17=
EXTT18=
PLAYORDER=
